<?xml version="1.0" standalone="no"?>
<!DOCTYPE svg PUBLIC "-//W3C//DTD SVG 20010904//EN"
 "http://www.w3.org/TR/2001/REC-SVG-20010904/DTD/svg10.dtd">
<svg version="1.0" xmlns="http://www.w3.org/2000/svg"
 width="1920.000000pt" height="1920.000000pt" viewBox="0 0 1920.000000 1920.000000"
 preserveAspectRatio="xMidYMid meet">
<metadata>
Created by potrace 1.14, written by Peter Selinger 2001-2017
</metadata>
<g transform="translate(0.000000,1920.000000) scale(0.100000,-0.100000)"
fill="#000000" stroke="none">
<path d="M8965 16726 c-27 -8 -91 -16 -141 -19 -50 -4 -107 -13 -127 -22 -20
-8 -60 -15 -89 -15 -29 -1 -64 -7 -78 -15 -14 -8 -44 -14 -68 -15 -23 0 -60
-9 -82 -20 -22 -11 -57 -20 -78 -20 -22 0 -45 -6 -51 -14 -7 -8 -38 -15 -82
-18 -39 -2 -73 -9 -77 -15 -4 -6 -29 -14 -57 -19 -27 -4 -54 -13 -60 -19 -5
-7 -23 -15 -40 -18 -39 -6 -91 -24 -137 -48 -20 -10 -48 -19 -61 -19 -14 0
-30 -7 -37 -15 -7 -8 -29 -15 -50 -15 -21 0 -43 -7 -50 -15 -7 -8 -28 -17 -49
-21 -20 -4 -43 -12 -51 -19 -8 -8 -27 -16 -42 -20 -15 -4 -32 -13 -39 -21 -6
-8 -19 -14 -29 -14 -10 0 -23 -7 -30 -15 -7 -8 -23 -15 -35 -15 -12 0 -28 -7
-35 -15 -7 -8 -20 -15 -29 -15 -23 0 -174 -78 -184 -95 -4 -8 -19 -15 -33 -15
-13 0 -27 -7 -30 -15 -4 -8 -16 -15 -29 -15 -12 0 -30 -9 -40 -20 -10 -11 -29
-20 -42 -20 -12 0 -23 -5 -23 -10 0 -6 -12 -16 -27 -23 -16 -6 -30 -14 -33
-17 -5 -5 -21 -16 -89 -58 -24 -15 -53 -35 -63 -44 -10 -10 -25 -18 -34 -18
-9 0 -34 -16 -55 -35 -22 -19 -45 -35 -52 -35 -7 0 -38 -22 -69 -50 -31 -27
-62 -50 -70 -50 -7 0 -30 -16 -51 -35 -21 -19 -47 -37 -58 -40 -10 -4 -19 -10
-19 -15 0 -5 -40 -41 -90 -80 -49 -39 -93 -77 -97 -83 -5 -7 -33 -32 -63 -57
-63 -51 -195 -176 -284 -269 -33 -35 -80 -82 -104 -105 -24 -23 -59 -64 -78
-92 -19 -28 -61 -78 -94 -110 -33 -32 -60 -64 -60 -70 0 -14 -39 -66 -92 -122
-43 -46 -58 -68 -77 -108 -5 -12 -14 -23 -18 -25 -5 -2 -20 -22 -33 -44 -23
-38 -73 -107 -106 -148 -8 -10 -17 -31 -21 -48 -3 -16 -10 -29 -14 -29 -5 0
-14 -10 -20 -22 -15 -34 -34 -66 -51 -85 -8 -10 -25 -39 -37 -65 -12 -26 -27
-48 -33 -50 -7 -3 -9 -12 -4 -24 8 -18 9 -18 19 4 5 12 16 22 23 22 8 0 16 11
20 25 3 14 10 25 14 25 5 0 12 10 16 22 3 12 22 36 40 54 19 17 34 40 34 50 0
11 16 35 35 54 19 19 35 40 35 47 0 7 9 17 20 23 10 5 35 34 54 63 20 29 72
90 116 136 44 45 80 86 80 91 0 8 47 58 91 96 13 11 48 47 78 80 30 32 66 64
80 70 14 6 62 45 106 88 43 42 83 76 88 76 12 0 69 42 89 66 9 12 50 43 90 70
40 27 75 51 78 55 3 3 26 18 53 33 26 15 47 32 47 37 0 5 5 9 11 9 7 0 34 16
60 35 27 19 56 35 65 35 9 0 27 9 41 20 14 11 31 20 37 20 6 0 19 8 28 18 32
33 47 42 88 48 23 4 44 13 47 20 3 8 19 14 37 14 18 0 41 7 52 15 10 8 37 15
59 15 22 0 58 9 80 20 22 11 59 19 81 20 24 0 47 6 54 15 8 9 30 15 59 15 25
0 58 6 72 14 14 7 57 17 95 21 38 3 79 13 91 21 16 10 50 14 112 13 49 -1 98
4 110 10 27 15 101 -3 101 -24 0 -9 10 -15 25 -15 25 0 25 -1 25 -79 0 -61 3
-80 15 -85 10 -3 15 -19 15 -44 0 -27 7 -45 21 -58 13 -11 20 -29 19 -49 -3
-54 3 -161 7 -132 5 30 23 37 23 9 0 -11 8 -26 18 -35 14 -12 19 -34 20 -89 3
-74 12 -97 41 -99 13 0 14 -2 1 -6 -22 -9 -29 -24 -25 -53 2 -14 7 -42 10 -62
4 -24 11 -38 20 -38 8 0 15 -4 15 -10 0 -5 9 -10 19 -10 11 0 23 -4 26 -10 3
-5 3 -10 -2 -10 -4 0 -7 -36 -5 -81 3 -68 6 -78 18 -68 12 10 14 5 14 -30 0
-33 4 -41 18 -41 13 0 22 -13 31 -49 7 -28 19 -55 27 -62 8 -6 14 -26 14 -45
0 -18 5 -36 10 -39 6 -3 10 -31 10 -61 0 -41 4 -54 15 -54 10 0 15 -11 15 -35
0 -19 -5 -35 -11 -35 -6 0 -9 -8 -6 -19 4 -15 -5 -22 -52 -36 -31 -10 -80 -26
-109 -36 -30 -11 -68 -19 -85 -19 -18 0 -41 -7 -51 -15 -11 -8 -40 -15 -65
-15 -25 0 -51 -6 -61 -15 -9 -8 -45 -18 -81 -21 -35 -4 -73 -12 -84 -19 -11
-7 -44 -16 -72 -20 -29 -4 -57 -13 -64 -21 -6 -8 -24 -14 -39 -14 -15 0 -33
-7 -40 -15 -7 -8 -24 -15 -38 -15 -13 0 -39 -9 -56 -19 -17 -10 -46 -22 -63
-26 -18 -3 -33 -10 -33 -15 0 -5 -20 -12 -45 -15 -24 -4 -50 -13 -56 -21 -6
-8 -22 -14 -35 -14 -12 0 -29 -7 -38 -15 -8 -8 -21 -15 -29 -15 -8 0 -25 -8
-38 -17 -24 -18 -74 -44 -119 -63 -14 -5 -32 -14 -40 -18 -51 -29 -78 -43
-102 -53 -16 -6 -28 -15 -28 -20 0 -5 -6 -9 -14 -9 -8 0 -34 -15 -58 -33 -59
-45 -113 -77 -129 -77 -8 0 -32 -17 -54 -37 -22 -19 -67 -54 -99 -77 -32 -22
-78 -54 -102 -71 -23 -16 -71 -57 -105 -89 -34 -33 -89 -82 -121 -109 -33 -27
-62 -56 -65 -65 -8 -23 -54 -72 -68 -72 -6 0 -33 -27 -61 -61 -27 -33 -71 -85
-99 -114 -67 -72 -75 -83 -75 -92 0 -5 -16 -26 -35 -48 -19 -22 -38 -49 -41
-60 -4 -11 -10 -22 -13 -25 -4 -3 -28 -38 -54 -77 -26 -40 -52 -73 -57 -73 -6
0 -10 -12 -10 -26 0 -14 -9 -37 -20 -51 -11 -14 -20 -32 -20 -39 0 -7 -6 -17
-13 -21 -7 -4 -32 -47 -56 -95 -23 -49 -47 -90 -52 -94 -5 -3 -9 -18 -9 -34 0
-16 -15 -58 -34 -93 -18 -36 -36 -81 -40 -101 -4 -20 -11 -36 -16 -36 -5 0
-12 -17 -16 -37 -3 -21 -12 -48 -20 -60 -8 -12 -14 -37 -14 -55 0 -19 -6 -42
-14 -53 -7 -11 -16 -52 -19 -92 -3 -39 -12 -84 -20 -100 -8 -15 -17 -61 -19
-100 -3 -40 -10 -79 -16 -86 -6 -7 -12 -57 -12 -112 -1 -55 -6 -131 -10 -168
-5 -39 -4 -148 2 -250 5 -100 10 -198 10 -217 0 -19 4 -40 9 -47 6 -7 6 -13 0
-17 -12 -8 -8 -36 8 -45 11 -7 18 -25 20 -54 1 -5 17 0 37 12 56 33 64 29 64
-34 0 -40 4 -57 15 -61 19 -8 19 -21 -1 -41 -8 -9 -11 -19 -7 -22 5 -3 13 -15
16 -25 10 -25 18 -15 22 28 2 19 7 41 11 47 4 7 7 25 6 40 -1 45 16 34 20 -11
4 -48 22 -58 26 -15 2 16 8 33 14 36 6 4 12 35 15 70 3 39 11 69 19 75 9 8 14
27 13 50 -3 49 8 84 27 84 11 0 14 15 14 65 0 49 4 67 15 71 11 5 15 21 15 60
0 41 5 59 20 74 11 11 20 33 20 49 0 16 6 36 13 43 8 7 17 30 21 50 3 20 13
41 21 48 8 7 15 21 15 32 0 11 7 26 15 34 8 9 15 26 15 40 0 13 9 33 20 44 11
11 20 33 20 50 0 20 5 30 15 30 9 0 15 9 15 25 0 14 9 33 20 42 11 10 20 28
20 40 0 12 9 27 20 33 11 6 20 15 20 21 0 6 7 17 15 25 8 9 15 24 15 35 0 11
7 22 15 25 8 4 15 15 15 26 0 17 11 35 60 95 6 7 10 17 10 22 0 6 9 15 20 21
11 6 20 17 20 25 0 7 23 43 50 79 28 36 50 69 50 73 0 5 32 42 70 82 39 41 70
81 70 89 0 16 146 162 161 162 5 0 9 6 9 13 0 18 94 107 114 107 9 0 19 7 22
15 4 8 12 15 20 15 8 0 14 4 14 9 0 14 45 61 59 61 6 0 11 6 11 14 0 8 9 17
19 21 11 3 22 12 25 20 3 8 15 15 26 15 12 0 36 16 54 35 19 19 38 35 45 35 6
0 19 8 29 18 10 9 29 24 42 32 12 8 30 22 39 31 9 9 27 20 41 24 13 4 30 14
38 21 7 8 24 14 38 14 15 0 24 6 24 15 0 8 6 15 13 15 7 0 20 9 30 20 9 11 25
20 36 20 10 0 21 7 25 15 3 8 17 15 31 15 14 0 34 9 45 20 11 11 31 20 45 20
14 0 28 7 31 15 4 8 18 15 34 15 15 0 37 9 50 20 13 11 31 20 40 20 10 0 23 7
30 15 7 8 24 15 37 15 14 0 36 9 50 20 14 11 38 20 53 20 16 0 30 7 34 15 4
11 22 15 71 15 51 0 65 3 65 15 0 14 10 17 76 19 11 1 28 9 38 19 11 10 33 17
57 17 22 0 50 7 64 16 13 9 49 16 83 18 35 1 67 8 77 16 12 10 48 16 114 18
58 2 109 9 129 18 27 13 84 15 346 12 215 -2 317 -7 327 -14 8 -7 59 -14 114
-16 74 -2 107 -8 125 -21 16 -11 44 -17 82 -17 34 0 62 -5 70 -14 8 -7 37 -15
66 -18 29 -3 60 -12 70 -22 10 -9 35 -16 54 -16 20 0 41 -7 48 -15 8 -10 30
-15 62 -15 35 0 58 -6 75 -20 14 -11 36 -20 49 -20 12 0 29 -7 38 -15 8 -8 27
-15 41 -15 15 0 38 -9 52 -20 14 -11 34 -20 45 -20 10 0 21 -7 24 -15 4 -9 19
-15 35 -15 17 0 32 -6 35 -15 4 -8 17 -15 31 -15 14 0 36 -9 50 -20 14 -11 31
-20 38 -20 7 0 18 -6 24 -14 6 -7 25 -16 41 -20 18 -3 30 -12 30 -21 0 -8 8
-15 19 -15 10 0 24 -7 31 -15 7 -8 18 -15 25 -15 7 0 18 -6 24 -14 7 -8 26
-18 42 -21 16 -4 29 -10 29 -15 0 -5 24 -22 53 -39 28 -16 63 -44 77 -61 14
-16 30 -30 36 -30 6 0 17 -7 24 -15 7 -8 21 -15 31 -15 10 0 22 -6 26 -13 4
-8 16 -16 26 -20 10 -4 25 -20 35 -37 9 -16 25 -33 35 -36 10 -3 31 -19 48
-35 16 -16 33 -29 36 -29 10 0 93 -89 93 -100 0 -6 7 -10 15 -10 8 0 15 -7 15
-15 0 -8 5 -15 11 -15 12 0 99 -82 99 -94 0 -3 15 -21 33 -40 17 -18 39 -43
47 -55 8 -12 22 -23 31 -26 9 -3 21 -15 28 -28 6 -12 20 -35 31 -52 11 -16 25
-40 31 -52 7 -12 32 -44 57 -70 24 -26 48 -57 53 -68 5 -11 18 -33 29 -50 11
-16 25 -41 32 -55 7 -14 16 -27 20 -30 4 -3 19 -28 34 -55 14 -28 32 -54 40
-58 8 -4 14 -17 14 -27 0 -11 9 -29 20 -40 11 -11 20 -33 20 -49 0 -16 7 -34
15 -41 8 -7 15 -18 15 -25 0 -7 7 -18 15 -25 8 -7 15 -21 15 -32 0 -11 9 -31
20 -45 11 -14 20 -34 20 -43 0 -10 7 -23 15 -30 8 -7 15 -22 15 -34 0 -12 9
-38 20 -59 11 -20 20 -52 20 -71 0 -18 7 -39 15 -46 8 -7 15 -29 15 -49 0 -20
9 -49 20 -66 11 -16 20 -45 20 -63 0 -18 7 -40 15 -48 8 -9 15 -33 15 -55 0
-22 6 -52 14 -67 7 -15 17 -56 21 -92 4 -36 12 -71 19 -79 12 -15 27 -308 28
-536 1 -244 -17 -527 -35 -560 -10 -18 -17 -53 -17 -86 0 -33 -6 -63 -15 -75
-8 -10 -15 -36 -15 -57 0 -20 -9 -54 -20 -74 -11 -21 -20 -55 -20 -76 0 -24
-5 -40 -15 -43 -9 -4 -15 -19 -15 -38 0 -17 -6 -41 -14 -52 -8 -11 -17 -42
-21 -69 -4 -28 -14 -59 -21 -70 -8 -11 -14 -28 -14 -38 0 -10 -9 -30 -20 -44
-11 -14 -20 -34 -20 -43 0 -10 -7 -23 -15 -30 -8 -7 -15 -23 -15 -37 0 -13 -7
-26 -15 -29 -8 -4 -15 -16 -15 -29 0 -12 -9 -30 -20 -40 -11 -10 -20 -26 -20
-36 0 -21 -40 -102 -52 -107 -4 -2 -8 -9 -8 -15 0 -7 -18 -38 -40 -70 -22 -31
-40 -61 -40 -65 0 -4 -12 -18 -26 -32 -24 -22 -33 -24 -98 -21 -43 2 -77 8
-87 17 -8 8 -26 14 -40 14 -13 0 -37 9 -54 20 -16 11 -40 20 -53 20 -12 0 -25
7 -28 15 -4 8 -16 15 -29 15 -12 0 -28 6 -34 14 -7 8 -25 18 -41 21 -16 3 -34
13 -41 21 -6 8 -22 14 -34 14 -12 0 -28 7 -35 15 -7 8 -18 15 -25 15 -7 0 -18
7 -25 16 -8 8 -27 21 -44 28 -17 7 -42 25 -56 39 -14 15 -30 27 -36 27 -7 0
-14 7 -18 15 -3 8 -15 15 -27 15 -23 0 -389 363 -389 386 0 7 -16 30 -35 51
-19 21 -35 43 -35 48 0 6 -16 28 -35 49 -19 22 -35 46 -35 54 0 7 -7 20 -15
28 -8 9 -15 25 -15 37 0 13 -9 30 -20 40 -11 9 -20 25 -20 36 0 10 -6 21 -14
24 -7 3 -16 19 -19 37 -4 17 -14 38 -22 46 -8 9 -15 26 -15 39 0 12 -7 25 -15
29 -10 3 -15 19 -15 42 0 21 -8 46 -20 61 -14 18 -20 41 -20 77 0 29 -5 57
-12 64 -6 6 -17 44 -24 84 -7 40 -17 91 -23 113 -6 22 -11 55 -11 73 0 58 -47
33 -86 -45 -10 -20 -24 -33 -35 -33 -10 0 -30 -11 -45 -25 -15 -14 -39 -28
-53 -32 -38 -9 -43 -13 -31 -28 9 -10 6 -19 -9 -34 -12 -12 -28 -21 -36 -21
-9 0 -29 -7 -44 -15 -16 -8 -31 -12 -34 -9 -3 3 -14 1 -24 -4 -17 -10 -17 -11
0 -17 9 -4 17 -11 17 -16 0 -12 -53 -37 -68 -32 -7 3 -27 -8 -46 -25 -18 -16
-54 -37 -79 -48 -26 -10 -47 -22 -47 -26 0 -11 14 -10 27 3 6 6 13 7 16 2 4
-6 -14 -29 -38 -53 -25 -24 -45 -49 -45 -56 0 -6 -14 -14 -32 -18 -38 -7 -98
-51 -98 -72 0 -7 -9 -14 -19 -14 -11 0 -21 -4 -23 -8 -1 -5 -16 -15 -33 -23
-16 -8 -31 -23 -33 -34 -4 -23 -71 -58 -95 -50 -17 7 -32 -10 -17 -20 5 -3 10
-19 10 -35 0 -21 14 -43 53 -82 69 -72 191 -177 247 -213 25 -16 70 -51 99
-77 30 -27 60 -48 66 -48 7 0 20 -9 30 -20 10 -11 26 -20 36 -20 10 0 35 -16
56 -35 21 -19 44 -35 50 -35 26 0 113 -86 113 -110 0 -11 3 -20 8 -20 11 0 3
-142 -10 -167 -6 -13 -17 -23 -24 -23 -7 0 -15 -13 -19 -29 -3 -16 -17 -39
-31 -51 -31 -30 -32 -54 -3 -45 23 8 23 14 3 -85 -5 -23 -12 -30 -30 -30 -21
0 -24 -5 -24 -35 0 -24 -5 -35 -15 -35 -8 0 -15 -9 -15 -20 0 -11 5 -20 12
-20 9 0 9 -3 0 -12 -7 -7 -12 -42 -12 -85 0 -42 -4 -73 -10 -73 -5 0 -10 8
-10 19 0 23 -22 42 -36 33 -6 -4 -12 -36 -12 -72 -1 -43 -8 -79 -22 -107 -11
-23 -20 -58 -20 -78 0 -39 -14 -47 -23 -13 -6 21 -7 21 -27 3 -25 -23 -25 -40
0 -67 19 -21 19 -22 0 -35 -15 -10 -20 -28 -22 -76 -2 -46 -6 -61 -17 -59 -17
4 -51 -26 -51 -44 0 -8 9 -19 20 -26 28 -18 26 -56 -2 -60 -21 -3 -23 -9 -23
-56 l0 -52 -45 -1 c-56 -1 -92 -11 -88 -24 2 -6 15 -9 31 -7 24 2 27 0 21 -22
-7 -28 17 -46 60 -46 14 0 48 -9 76 -20 28 -11 63 -20 78 -20 15 0 36 -6 47
-14 18 -12 260 -32 360 -29 17 0 89 2 160 3 74 2 145 8 165 15 19 8 60 16 91
19 31 3 69 13 85 21 17 8 55 15 90 15 42 0 65 5 74 15 7 8 29 15 50 15 21 0
43 7 50 15 7 8 28 15 46 15 21 0 42 8 54 20 11 11 33 20 48 20 16 0 37 7 48
15 10 8 29 15 41 15 12 0 29 7 38 16 8 9 34 19 58 22 23 3 63 18 90 34 26 15
51 28 54 28 12 0 159 74 182 92 13 10 31 18 40 18 9 0 39 15 67 33 28 19 57
37 65 40 8 4 41 25 74 47 33 22 72 46 88 52 15 7 27 16 27 20 0 4 5 8 11 8 7
0 40 24 75 53 93 76 121 97 132 97 5 0 34 22 63 49 30 28 71 65 92 83 22 18
83 77 138 131 54 53 103 97 109 97 5 0 10 6 10 13 0 6 41 54 90 106 50 52 90
100 90 106 0 6 25 38 55 70 30 32 55 63 55 71 0 7 3 14 8 16 9 4 62 81 62 91
0 3 12 19 26 34 15 15 31 40 36 56 6 15 13 27 18 27 4 0 13 14 20 30 7 17 16
30 21 30 5 0 9 6 9 13 0 8 9 22 20 32 11 10 20 30 20 45 0 16 7 30 15 34 8 3
15 14 15 24 0 10 9 27 20 37 11 10 20 26 20 35 0 10 6 23 14 29 8 7 18 26 21
42 4 16 10 29 15 29 4 0 13 12 19 28 7 15 18 38 26 52 8 14 15 39 15 56 0 19
6 34 15 38 9 3 15 18 15 35 0 16 6 31 14 34 7 3 16 24 19 48 3 23 13 46 21 51
9 5 16 22 16 41 0 21 7 36 20 45 15 9 20 23 20 52 0 27 5 43 15 46 9 4 15 19
15 40 0 34 22 48 34 22 5 -10 7 -10 12 0 6 13 55 17 53 5 -4 -27 3 -43 21 -43
16 0 20 -7 20 -30 0 -26 3 -30 29 -30 34 0 91 -50 91 -80 0 -10 5 -22 10 -25
6 -3 10 -14 10 -24 0 -19 35 -31 90 -31 33 0 70 -38 70 -72 0 -53 12 -88 31
-88 10 0 21 -4 24 -10 3 -5 21 -10 40 -10 27 0 34 -5 39 -25 5 -21 12 -25 45
-25 l38 0 6 -56 c3 -31 12 -63 19 -73 47 -58 63 -144 33 -175 -8 -8 -15 -30
-15 -48 0 -21 -7 -40 -20 -51 -15 -13 -20 -29 -20 -71 0 -39 -4 -55 -15 -60
-9 -3 -15 -18 -15 -35 0 -16 -6 -31 -14 -34 -8 -3 -18 -22 -21 -41 -4 -19 -13
-40 -21 -47 -8 -6 -14 -20 -14 -31 0 -10 -7 -21 -15 -24 -8 -4 -15 -15 -15
-26 0 -11 -9 -31 -20 -45 -11 -14 -20 -38 -20 -54 0 -17 -11 -40 -29 -59 -16
-18 -32 -45 -35 -61 -3 -17 -12 -29 -21 -29 -10 0 -15 -10 -15 -30 0 -20 -5
-30 -15 -30 -8 0 -15 -6 -15 -13 0 -7 -9 -20 -20 -30 -11 -9 -20 -24 -20 -33
0 -15 -47 -80 -87 -122 -7 -7 -13 -17 -13 -22 0 -5 -16 -26 -35 -47 -19 -21
-35 -48 -35 -60 0 -13 -6 -23 -13 -23 -7 0 -28 -19 -47 -42 -34 -42 -313 -323
-424 -426 -30 -28 -61 -52 -68 -52 -7 0 -31 -16 -52 -35 -22 -19 -45 -35 -52
-35 -6 0 -25 -15 -41 -33 -16 -18 -37 -36 -46 -40 -9 -3 -17 -11 -17 -17 0 -5
-11 -10 -24 -10 -14 0 -31 -6 -38 -13 -7 -7 -37 -28 -65 -47 -29 -18 -53 -35
-53 -37 0 -2 11 -3 25 -3 16 0 25 6 25 15 0 9 9 15 24 15 13 0 29 6 35 14 7 8
26 18 42 21 16 4 29 13 29 21 0 9 11 14 30 14 16 0 38 8 48 18 27 25 63 48
132 84 13 7 38 25 54 41 17 15 39 27 50 27 10 0 29 10 41 23 34 35 86 77 95
77 5 0 30 18 55 40 25 22 53 40 61 40 8 0 28 14 44 30 16 17 56 49 87 71 63
44 177 142 233 202 19 20 41 37 48 37 18 0 420 406 458 462 16 23 55 70 87
104 32 34 77 88 99 120 22 32 49 67 60 77 10 10 29 35 42 55 13 21 35 48 49
62 15 14 27 31 27 38 0 16 81 122 92 122 5 0 8 6 8 13 0 6 16 34 35 61 19 27
35 58 35 68 0 10 6 21 14 24 8 3 19 18 25 32 6 15 20 41 31 57 11 17 24 40 30
53 5 12 17 25 25 28 8 4 15 16 15 29 0 12 7 28 15 35 8 7 15 17 15 22 0 15 50
117 61 123 5 4 9 14 9 24 0 10 9 30 20 44 11 14 20 32 20 40 0 8 7 20 15 27 8
7 15 20 15 30 0 9 9 29 20 43 11 14 20 40 20 60 0 22 6 37 15 41 8 3 15 18 15
33 0 15 9 42 20 58 11 17 20 40 20 51 0 12 7 27 15 34 8 7 15 25 15 40 0 15 9
47 20 71 11 24 20 55 20 69 0 14 7 34 15 44 9 12 15 42 15 76 0 31 6 64 14 75
7 11 17 40 21 65 4 25 13 55 21 67 8 12 14 37 14 55 0 19 6 42 14 53 7 11 16
45 20 75 4 30 11 59 16 65 5 6 12 38 16 71 4 32 11 65 17 72 5 6 13 65 18 130
4 65 13 131 19 147 6 17 14 75 16 130 3 55 12 135 20 179 17 93 19 763 3 836
-5 25 -14 102 -18 171 -5 69 -14 136 -21 150 -8 14 -15 71 -18 134 -3 70 -9
118 -18 132 -8 12 -14 44 -14 70 -1 26 -9 66 -20 88 -11 22 -19 59 -20 81 0
24 -6 47 -15 54 -9 7 -15 29 -15 53 0 22 -7 48 -15 57 -8 9 -18 39 -21 66 -4
27 -12 56 -19 64 -7 8 -15 38 -18 65 -5 52 -26 120 -52 167 -8 14 -15 37 -15
51 0 13 -7 30 -15 37 -8 7 -15 20 -15 29 0 9 -9 33 -20 54 -11 20 -20 46 -20
57 0 11 -7 23 -15 26 -10 4 -15 20 -15 44 0 21 -7 43 -15 50 -8 7 -15 17 -15
23 0 14 -90 196 -101 203 -5 3 -9 16 -9 30 0 14 -7 27 -15 30 -8 4 -15 14 -15
24 0 22 -48 120 -58 120 -4 0 -13 12 -19 28 -7 15 -28 54 -47 87 -56 95 -74
128 -87 158 -6 15 -15 27 -20 27 -5 0 -9 4 -9 10 0 9 -33 58 -90 132 -11 14
-20 33 -20 41 0 9 -16 33 -35 54 -41 46 -121 153 -155 208 -13 22 -52 68 -86
102 -33 35 -66 74 -72 87 -13 30 -148 172 -327 345 -71 69 -159 155 -195 190
-36 35 -81 74 -100 86 -20 13 -53 39 -73 59 -38 37 -119 98 -215 162 -28 19
-75 55 -102 79 -28 25 -55 45 -61 45 -6 0 -17 7 -25 15 -9 8 -23 15 -32 15 -9
0 -35 16 -56 35 -22 19 -43 35 -47 35 -8 0 -69 38 -131 81 -15 11 -36 19 -47
19 -11 0 -25 9 -31 20 -6 11 -20 20 -31 20 -12 0 -38 13 -58 29 -21 16 -49 33
-64 36 -15 4 -29 11 -32 15 -7 12 -110 60 -127 60 -8 0 -23 7 -34 15 -10 8
-29 15 -40 15 -12 0 -27 7 -34 15 -7 8 -23 15 -37 15 -13 0 -26 7 -29 15 -4 8
-17 15 -29 15 -13 0 -30 7 -39 15 -8 8 -21 15 -28 15 -7 0 -30 9 -51 20 -20
11 -49 20 -64 20 -16 0 -41 9 -58 20 -16 11 -39 20 -50 20 -11 0 -29 7 -39 15
-11 8 -34 15 -52 15 -17 0 -37 7 -44 15 -7 8 -30 18 -51 21 -21 4 -44 13 -50
20 -6 8 -27 14 -47 14 -19 0 -43 7 -53 15 -10 10 -45 18 -88 22 -41 3 -76 12
-82 19 -6 8 -30 14 -54 14 -24 0 -62 9 -86 20 -24 11 -62 20 -84 20 -22 0 -51
7 -65 15 -14 8 -49 14 -77 15 -29 0 -70 6 -90 14 -21 8 -76 17 -123 20 -47 3
-107 13 -134 21 -68 21 -1123 21 -1201 1z m-890 -2586 c3 -5 1 -10 -4 -10 -6
0 -11 5 -11 10 0 6 2 10 4 10 3 0 8 -4 11 -10z m4798 -4685 c7 -18 -9 -29 -30
-21 -12 5 -13 9 -3 21 16 19 26 19 33 0z m57 -85 c0 -5 -2 -10 -4 -10 -3 0 -8
5 -11 10 -3 6 -1 10 4 10 6 0 11 -4 11 -10z m110 -64 c0 -8 -51 -13 -56 -5 -3
5 9 9 25 9 17 0 31 -2 31 -4z m240 -286 c0 -5 -2 -10 -4 -10 -3 0 -8 5 -11 10
-3 6 -1 10 4 10 6 0 11 -4 11 -10z m70 -70 c0 -5 -2 -10 -4 -10 -3 0 -8 5 -11
10 -3 6 -1 10 4 10 6 0 11 -4 11 -10z m200 -245 c0 -19 -4 -35 -10 -35 -11 0
-14 53 -3 63 11 12 13 8 13 -28z"/>
<path d="M7618 15418 c5 -71 10 -77 11 -15 0 31 -2 57 -7 57 -4 0 -6 -19 -4
-42z"/>
<path d="M4850 13910 c0 -11 5 -20 10 -20 6 0 10 9 10 20 0 11 -4 20 -10 20
-5 0 -10 -9 -10 -20z"/>
<path d="M4810 13856 c0 -8 5 -18 10 -21 6 -3 10 3 10 14 0 12 -4 21 -10 21
-5 0 -10 -6 -10 -14z"/>
<path d="M4780 13790 c0 -5 5 -10 10 -10 6 0 10 5 10 10 0 6 -4 10 -10 10 -5
0 -10 -4 -10 -10z"/>
<path d="M4745 13720 c3 -5 8 -10 11 -10 2 0 4 5 4 10 0 6 -5 10 -11 10 -5 0
-7 -4 -4 -10z"/>
<path d="M4926 10307 c3 -10 9 -15 12 -12 3 3 0 11 -7 18 -10 9 -11 8 -5 -6z"/>
<path d="M4886 10212 c-2 -4 -1 -14 3 -21 6 -10 10 -9 14 3 6 16 -8 32 -17 18z"/>
<path d="M9410 9599 c0 -18 2 -19 15 -9 8 7 15 16 15 21 0 5 -7 9 -15 9 -9 0
-15 -9 -15 -21z"/>
<path d="M13404 8826 c-4 -10 -2 -22 4 -28 8 -8 13 -7 18 6 4 10 2 22 -4 28
-8 8 -13 7 -18 -6z"/>
<path d="M8828 6753 c7 -3 16 -2 19 1 4 3 -2 6 -13 5 -11 0 -14 -3 -6 -6z"/>
<path d="M11945 6621 c-3 -5 -1 -12 4 -15 13 -8 42 4 35 15 -7 12 -31 12 -39
0z"/>
<path d="M11890 6580 c0 -5 5 -10 10 -10 6 0 10 5 10 10 0 6 -4 10 -10 10 -5
0 -10 -4 -10 -10z"/>
<path d="M11805 6550 c-3 -5 3 -10 15 -10 12 0 18 5 15 10 -3 6 -10 10 -15 10
-5 0 -12 -4 -15 -10z"/>
<path d="M11750 6509 c0 -5 5 -7 10 -4 6 3 10 8 10 11 0 2 -4 4 -10 4 -5 0
-10 -5 -10 -11z"/>
<path d="M11670 6480 c-12 -8 -10 -10 8 -10 13 0 20 4 17 10 -7 12 -6 12 -25
0z"/>
<path d="M11580 6439 c0 -5 5 -7 10 -4 6 3 10 8 10 11 0 2 -4 4 -10 4 -5 0
-10 -5 -10 -11z"/>
<path d="M11011 6258 c-17 -18 -30 -21 -90 -19 -44 1 -81 -4 -98 -12 -21 -11
-98 -16 -302 -21 -151 -3 -276 -8 -278 -10 -13 -13 16 -35 67 -50 86 -26 167
-35 430 -46 342 -15 729 9 821 50 31 13 35 18 25 31 -6 9 -20 19 -31 22 -26 8
-370 37 -441 37 -39 0 -54 4 -54 14 0 24 -29 26 -49 4z"/>
<path d="M7170 5940 c-126 -34 -196 -74 -285 -164 -153 -155 -206 -345 -160
-581 44 -232 192 -368 510 -466 322 -100 434 -148 500 -214 55 -55 77 -106 83
-191 8 -133 -38 -213 -160 -275 -151 -76 -336 -57 -495 52 -129 88 -295 283
-388 457 -22 41 -33 52 -53 52 l-24 0 6 -102 c3 -57 8 -173 11 -258 9 -263 14
-300 36 -300 10 0 19 4 19 9 0 21 53 71 76 71 13 0 90 -13 171 -30 218 -43
312 -53 458 -48 107 4 144 10 210 32 142 49 252 131 328 246 152 230 137 612
-31 787 -101 105 -207 159 -457 233 -294 86 -395 129 -461 195 -95 96 -98 244
-6 346 56 63 121 96 212 109 93 13 182 -1 268 -43 113 -54 259 -214 369 -404
39 -66 53 -83 72 -83 l23 0 -6 133 c-3 72 -9 198 -12 280 -4 87 -10 147 -16
147 -6 0 -23 -11 -40 -25 -40 -34 -71 -32 -241 11 -126 33 -159 37 -292 41
-126 3 -162 0 -225 -17z"/>
<path d="M10365 5951 c-404 -66 -663 -333 -741 -764 -23 -125 -23 -399 0 -524
40 -224 116 -375 249 -500 116 -108 276 -179 462 -204 133 -17 388 -7 495 21
110 28 249 96 325 158 150 122 253 328 292 577 19 126 12 454 -11 558 -48 207
-113 334 -236 458 -71 71 -101 93 -180 132 -145 72 -222 88 -430 92 -96 2
-197 0 -225 -4z m266 -56 c67 -9 128 -51 169 -120 77 -129 94 -308 87 -892 -5
-432 -14 -537 -58 -676 -43 -134 -136 -200 -284 -201 -98 0 -151 15 -207 57
-83 63 -122 159 -148 357 -17 134 -24 661 -11 891 13 242 28 335 71 421 55
111 111 154 220 168 54 7 69 7 161 -5z"/>
<path d="M14723 5933 c-4 -10 -165 -443 -358 -963 l-351 -945 -68 -3 c-63 -3
-67 -4 -64 -25 3 -22 5 -22 216 -25 l212 -2 0 25 0 25 -105 0 c-58 0 -105 3
-105 6 0 3 43 128 96 278 53 149 101 283 106 299 l10 27 280 -2 280 -3 99
-290 c54 -159 99 -296 99 -302 0 -10 -26 -13 -95 -13 -95 0 -95 0 -95 -25 l0
-25 455 0 455 0 0 25 c0 24 -2 25 -64 25 l-63 0 -115 313 c-63 171 -222 606
-354 964 l-239 653 -113 0 c-98 0 -114 -2 -119 -17z m7 -880 l119 -358 -251
-3 c-138 -1 -253 -1 -255 1 -2 2 51 157 118 343 150 417 138 388 145 381 3 -3
59 -167 124 -364z"/>
<path d="M3410 5905 c0 -24 2 -25 64 -25 52 0 65 -3 71 -17 4 -10 161 -436
350 -948 189 -511 347 -938 350 -947 6 -16 22 -18 126 -18 65 0 119 2 119 4 0
6 647 1861 661 1899 11 25 15 27 75 27 62 0 64 1 64 25 l0 25 -210 0 -210 0 0
-25 0 -25 105 0 c58 0 105 -4 105 -8 0 -10 -478 -1384 -483 -1389 -4 -3 -468
1377 -467 1390 0 4 43 7 95 7 95 0 95 0 95 25 l0 25 -455 0 -455 0 0 -25z"/>
<path d="M5510 5905 c0 -25 1 -25 80 -25 l80 0 -2 -927 -3 -928 -77 -3 c-75
-3 -78 -4 -78 -27 l0 -25 425 0 425 0 0 25 c0 24 -2 25 -75 25 l-75 0 0 930 0
930 75 0 c73 0 75 1 75 25 l0 25 -425 0 -425 0 0 -25z"/>
<path d="M8440 5905 c0 -25 1 -25 80 -25 l80 0 -2 -927 -3 -928 -77 -3 c-75
-3 -78 -4 -78 -27 l0 -25 425 0 425 0 0 25 c0 24 -2 25 -75 25 l-75 0 0 930 0
930 75 0 c73 0 75 1 75 25 l0 25 -425 0 -425 0 0 -25z"/>
<path d="M11760 5905 c0 -25 0 -25 95 -25 l95 0 -2 -927 -3 -928 -87 -3 c-86
-3 -88 -3 -88 -27 l0 -25 450 0 450 0 0 25 c0 25 -1 25 -90 25 l-90 0 0 476 0
477 103 -5 c137 -6 171 -22 205 -97 25 -54 26 -65 33 -321 6 -217 11 -279 28
-342 25 -97 41 -127 87 -168 74 -64 172 -90 344 -90 180 0 254 34 308 141 38
75 76 240 58 251 -25 17 -33 4 -50 -71 -26 -122 -72 -174 -140 -157 -48 12
-57 52 -66 325 -9 283 -22 341 -91 416 -47 51 -154 103 -244 118 -36 6 -65 14
-65 18 0 4 26 10 58 13 194 23 330 108 383 242 21 53 24 75 24 209 0 133 -3
156 -23 207 -30 76 -107 159 -171 187 -164 70 -289 81 -952 81 l-559 0 0 -25z
m990 -52 c59 -26 105 -80 125 -145 39 -132 27 -422 -21 -528 -53 -115 -113
-152 -261 -158 l-103 -4 0 432 0 433 108 -5 c78 -3 119 -10 152 -25z"/>
<path d="M6970 3271 c-5 -11 -10 -84 -10 -165 l0 -144 -28 28 c-55 54 -167 64
-250 21 -114 -58 -157 -212 -94 -332 67 -128 235 -167 337 -78 l35 31 0 -24
c0 -30 17 -48 45 -48 44 0 45 6 45 365 0 252 -3 344 -12 353 -18 18 -56 14
-68 -7z m-72 -350 c91 -67 79 -217 -22 -265 -110 -52 -226 19 -226 139 0 93
62 155 156 155 41 0 59 -6 92 -29z"/>
<path d="M10251 3276 c-8 -9 -11 -113 -9 -362 l3 -349 35 0 35 0 5 145 c4 94
11 155 20 173 20 41 69 67 125 67 40 0 52 -5 81 -34 l34 -34 0 -142 c0 -150 7
-180 43 -180 43 0 47 15 47 174 -1 157 -10 207 -47 248 -26 30 -92 58 -138 58
-43 0 -145 -42 -145 -60 0 -5 -4 -10 -10 -10 -6 0 -10 56 -10 148 0 152 -5
172 -41 172 -9 0 -22 -6 -28 -14z"/>
<path d="M4800 3231 c-6 -12 -10 -134 -10 -326 0 -192 4 -314 10 -326 12 -21
50 -25 68 -7 8 8 12 52 12 130 l0 118 50 0 49 0 52 -77 c103 -153 128 -183
154 -183 14 0 29 8 35 20 13 24 7 36 -72 148 -32 45 -58 86 -58 91 0 5 16 12
35 15 48 9 100 57 121 111 25 66 15 172 -20 225 -45 69 -81 80 -260 80 -143 0
-156 -1 -166 -19z m311 -77 c53 -27 76 -122 44 -184 -27 -52 -49 -60 -167 -60
l-108 0 0 123 c0 68 3 127 7 130 14 15 193 7 224 -9z"/>
<path d="M7980 3231 c-14 -27 -14 -625 0 -652 12 -21 50 -25 68 -7 8 8 12 56
12 150 l0 138 114 0 c91 0 118 3 130 16 19 19 20 25 4 47 -11 13 -34 17 -128
19 l-115 3 -3 112 -3 112 152 3 c132 3 153 5 163 21 8 12 8 22 0 35 -10 15
-33 17 -197 20 -176 2 -187 1 -197 -17z"/>
<path d="M9624 3225 c-11 -46 8 -55 117 -55 l99 0 0 -293 c0 -215 3 -296 12
-305 18 -18 56 -14 68 7 6 12 10 128 10 305 l0 286 93 0 c50 0 98 4 105 9 8 5
12 21 10 37 l-3 29 -252 3 -253 2 -6 -25z"/>
<path d="M11660 3231 c-14 -27 -14 -625 0 -652 11 -19 35 -24 64 -13 14 5 16
28 16 150 l0 144 114 0 c91 0 118 3 130 16 19 19 20 25 4 47 -11 13 -34 17
-128 19 l-115 3 -3 112 -3 112 152 3 c132 3 153 5 163 21 8 12 8 22 0 35 -10
15 -33 17 -197 20 -176 2 -187 1 -197 -17z"/>
<path d="M12732 3198 c-7 -7 -12 -43 -12 -89 l0 -78 -36 -3 c-71 -6 -74 -68
-4 -68 l40 0 0 -188 c0 -133 4 -192 12 -200 18 -18 56 -14 68 7 6 12 10 95 10
200 l0 180 48 3 c41 3 47 6 50 27 5 29 -12 41 -60 41 l-38 0 0 71 c0 39 -5 79
-10 90 -12 21 -50 25 -68 7z"/>
<path d="M5538 3026 c-105 -38 -158 -117 -158 -235 0 -157 139 -267 293 -232
93 20 159 79 137 121 -15 28 -36 25 -82 -11 -45 -36 -107 -48 -161 -30 -41 14
-97 72 -97 101 0 19 8 20 179 20 205 0 208 1 198 75 -21 151 -168 241 -309
191z m148 -82 c34 -17 74 -69 74 -98 0 -14 -18 -16 -145 -16 -161 0 -165 2
-126 66 36 59 127 81 197 48z"/>
<path d="M6110 3031 c-14 -4 -39 -15 -55 -24 -141 -73 -155 -312 -23 -407 47
-34 126 -54 176 -45 44 8 122 51 123 68 0 7 5 -4 12 -23 13 -38 46 -51 73 -30
19 16 21 429 2 448 -23 23 -59 14 -71 -17 l-10 -28 -42 29 c-32 23 -56 31
-101 34 -32 2 -70 0 -84 -5z m158 -101 c52 -32 74 -75 70 -141 -6 -94 -66
-149 -160 -149 -86 0 -148 65 -148 155 0 93 62 155 155 155 32 0 62 -7 83 -20z"/>
<path d="M8577 3026 c-137 -51 -198 -210 -131 -344 66 -132 245 -170 367 -79
111 84 125 257 28 360 -59 64 -182 94 -264 63z m173 -98 c69 -47 88 -131 47
-208 -74 -140 -288 -87 -291 72 -1 99 58 157 160 158 37 0 60 -6 84 -22z"/>
<path d="M9192 3020 c-18 -11 -40 -36 -50 -57 l-17 -36 -5 49 c-5 47 -6 49
-38 52 -27 3 -34 -1 -42 -23 -13 -34 -13 -386 0 -419 10 -28 50 -36 68 -13 5
6 12 66 14 132 8 187 42 244 154 253 43 4 55 8 60 25 16 50 -81 75 -144 37z"/>
<path d="M10958 3026 c-105 -38 -158 -117 -158 -235 0 -157 139 -267 293 -232
93 20 159 79 137 121 -15 28 -30 25 -90 -15 -58 -39 -106 -45 -163 -21 -39 16
-87 70 -87 97 0 18 9 19 179 19 205 0 208 1 198 75 -21 151 -167 242 -309 191z
m147 -82 c37 -17 60 -47 71 -88 l6 -26 -146 0 c-162 0 -166 2 -127 66 36 58
127 81 196 48z"/>
<path d="M13722 3020 c-18 -11 -40 -36 -50 -57 l-17 -36 -5 49 c-5 47 -6 49
-38 52 -27 3 -34 -1 -42 -23 -13 -34 -13 -386 0 -419 10 -28 50 -36 68 -13 5
6 12 66 14 132 8 204 42 249 190 254 9 1 20 11 24 23 16 51 -80 77 -144 38z"/>
<path d="M14088 3026 c-105 -38 -158 -117 -158 -235 0 -157 139 -267 293 -232
93 20 159 79 137 121 -15 28 -30 25 -90 -15 -58 -39 -106 -45 -163 -21 -39 16
-87 70 -87 97 0 18 9 19 179 19 205 0 208 1 198 75 -21 151 -167 242 -309 191z
m147 -82 c37 -17 60 -47 71 -88 l6 -26 -146 0 c-162 0 -166 2 -127 66 36 58
127 81 196 48z"/>
<path d="M7182 3018 c-7 -7 -12 -17 -12 -23 0 -5 38 -102 85 -215 l85 -205
-41 -101 c-33 -84 -39 -106 -29 -123 11 -21 35 -27 57 -13 6 4 72 153 146 331
145 346 148 361 88 361 -32 0 -27 8 -108 -190 -30 -74 -58 -139 -60 -144 -3
-4 -35 63 -72 150 -36 88 -70 165 -74 172 -10 15 -49 16 -65 0z"/>
<path d="M12142 3018 c-16 -16 -16 -287 -1 -343 16 -58 74 -112 130 -120 60
-9 125 9 161 45 27 28 28 28 28 6 0 -45 59 -65 80 -27 15 29 13 424 -2 439
-15 15 -51 15 -66 0 -8 -8 -12 -56 -12 -149 0 -125 -2 -139 -23 -170 -28 -42
-60 -59 -112 -59 -42 0 -75 20 -94 57 -7 13 -11 79 -11 165 0 151 -5 168 -45
168 -12 0 -26 -5 -33 -12z"/>
<path d="M13022 3018 c-16 -16 -16 -287 -1 -343 16 -58 74 -112 130 -120 60
-9 125 9 161 45 27 28 28 28 28 6 0 -45 59 -65 80 -27 15 29 13 424 -2 439
-15 15 -51 15 -66 0 -8 -8 -12 -56 -12 -149 0 -125 -2 -139 -23 -170 -28 -42
-60 -59 -112 -59 -42 0 -75 20 -94 57 -7 13 -11 79 -11 165 0 151 -5 168 -45
168 -12 0 -26 -5 -33 -12z"/>
</g>
</svg>
